<?xml version="1.0" encoding="utf-8"?>
<!-- Generator: Adobe Illustrator 26.5.3, SVG Export Plug-In . SVG Version: 6.00 Build 0)  -->
<svg version="1.1" id="Capa_1" xmlns="http://www.w3.org/2000/svg" xmlns:xlink="http://www.w3.org/1999/xlink" x="0px" y="0px"
	 viewBox="0 0 200 64" style="enable-background:new 0 0 200 64;" xml:space="preserve">
<style type="text/css">
	.st0{fill:#E5E5E5;}
	.st1{fill:#111111;}
	.st2{fill:#385E59;}
	.st3{fill:#028D7F;}
</style>
<g>
	<g>
		<g>
			<path class="st0" d="M64.88,19.21v19.7c0,1.82,0.8,2.48,2.08,2.48c1.28,0,2.08-0.66,2.08-2.48v-19.7h3.79v19.45
				c0,4.09-2.04,6.42-5.98,6.42c-3.94,0-5.98-2.33-5.98-6.42V19.21H64.88z"/>
			<path class="st0" d="M87.46,25.52v3.32c0,4.09-1.97,6.31-5.98,6.31h-1.9v9.6h-4.01V19.21h5.91
				C85.49,19.21,87.46,21.44,87.46,25.52z M79.58,22.86v8.65h1.9c1.28,0,1.97-0.58,1.97-2.41v-3.83c0-1.82-0.69-2.41-1.97-2.41
				H79.58z"/>
			<path class="st0" d="M93.34,29.98h5.51v3.65h-5.51v7.48h6.93v3.65H89.32V19.21h10.95v3.65h-6.93V29.98z"/>
			<path class="st0" d="M111.14,44.75c-0.22-0.66-0.37-1.06-0.37-3.14V37.6c0-2.37-0.8-3.25-2.63-3.25h-1.39v10.4h-4.01V19.21h6.06
				c4.16,0,5.95,1.93,5.95,5.87v2.01c0,2.63-0.84,4.31-2.63,5.14v0.07c2.01,0.84,2.66,2.74,2.66,5.4v3.94c0,1.24,0.04,2.15,0.44,3.1
				H111.14z M106.76,22.86v7.84h1.57c1.5,0,2.41-0.66,2.41-2.7v-2.52c0-1.82-0.62-2.63-2.04-2.63H106.76z"/>
			<path class="st0" d="M122.81,18.92c3.9,0,5.91,2.33,5.91,6.42v0.8h-3.79v-1.06c0-1.82-0.73-2.52-2.01-2.52
				c-1.28,0-2.01,0.69-2.01,2.52c0,1.86,0.8,3.25,3.43,5.55c3.36,2.96,4.41,5.07,4.41,7.99c0,4.09-2.04,6.42-5.98,6.42
				s-5.98-2.33-5.98-6.42v-1.57h3.79v1.82c0,1.82,0.8,2.48,2.08,2.48c1.28,0,2.08-0.66,2.08-2.48c0-1.86-0.8-3.25-3.43-5.55
				c-3.36-2.96-4.42-5.07-4.42-7.99C116.9,21.26,118.91,18.92,122.81,18.92z"/>
			<path class="st0" d="M135.07,29.98h5.51v3.65h-5.51v7.48H142v3.65h-10.95V19.21H142v3.65h-6.93V29.98z"/>
			<path class="st0" d="M152.87,44.75c-0.22-0.66-0.37-1.06-0.37-3.14V37.6c0-2.37-0.8-3.25-2.63-3.25h-1.39v10.4h-4.01V19.21h6.06
				c4.16,0,5.95,1.93,5.95,5.87v2.01c0,2.63-0.84,4.31-2.63,5.14v0.07c2.01,0.84,2.66,2.74,2.66,5.4v3.94c0,1.24,0.04,2.15,0.44,3.1
				H152.87z M148.49,22.86v7.84h1.57c1.5,0,2.41-0.66,2.41-2.7v-2.52c0-1.82-0.62-2.63-2.04-2.63H148.49z"/>
			<path class="st0" d="M165.09,40.04h0.07l3.03-20.83h3.69l-3.94,25.54h-5.98l-3.94-25.54h4.05L165.09,40.04z"/>
			<path class="st0" d="M177.75,29.98h5.51v3.65h-5.51v7.48h6.93v3.65h-10.95V19.21h10.95v3.65h-6.93V29.98z"/>
			<path class="st0" d="M195.55,44.75c-0.22-0.66-0.37-1.06-0.37-3.14V37.6c0-2.37-0.8-3.25-2.63-3.25h-1.39v10.4h-4.01V19.21h6.06
				c4.16,0,5.95,1.93,5.95,5.87v2.01c0,2.63-0.84,4.31-2.63,5.14v0.07c2.01,0.84,2.66,2.74,2.66,5.4v3.94c0,1.24,0.04,2.15,0.44,3.1
				H195.55z M191.17,22.86v7.84h1.57c1.5,0,2.41-0.66,2.41-2.7v-2.52c0-1.82-0.62-2.63-2.04-2.63H191.17z"/>
		</g>
	</g>
	<g>
		<path class="st1" d="M16.72,7.53c0.4-0.01,0.81-0.03,1.21-0.03c12.39,0,24.79,0,37.18,0c0.37,0,0.74,0,1.17,0
			c0,2.66,0,5.26,0,7.97c-10.48,0-20.96,0-31.5,0c0,2.64,0,5.18,0,7.83c10.49,0,20.97,0,31.5,0c0,7.97,0,15.84,0,23.83
			c-0.39,0-0.78,0-1.17,0c-12.52,0-25.04,0-37.56,0c-0.28,0-0.56,0.02-0.84,0.03c0-2.68,0-5.36,0-8.04
			c0.09,0.01,0.18,0.03,0.28,0.03c10.17,0,20.35,0,30.52,0c0.27,0,0.54-0.03,0.81-0.05c0-2.64,0-5.2,0-7.83c-10.59,0-21.1,0-31.61,0
			C16.72,23.36,16.72,15.44,16.72,7.53z"/>
		<polygon class="st2" points="16.72,47.16 0.36,56.5 39.93,56.47 56.29,47.12 		"/>
		<path class="st0" d="M0.36,16.88c0.4-0.01,0.81-0.03,1.21-0.03c12.39,0,24.79,0,37.18,0c0.37,0,0.74,0,1.17,0
			c0,2.66,0,5.26,0,7.97c-10.48,0-20.96,0-31.5,0c0,2.64,0,5.18,0,7.83c10.49,0,20.97,0,31.5,0c0,7.97,0,15.84,0,23.83
			c-0.39,0-0.78,0-1.17,0c-12.52,0-25.04,0-37.56,0c-0.28,0-0.56,0.02-0.84,0.03c0-2.68,0-5.36,0-8.04
			c0.09,0.01,0.18,0.03,0.28,0.03c10.17,0,20.35,0,30.52,0c0.27,0,0.54-0.03,0.81-0.05c0-2.64,0-5.2,0-7.83c-10.59,0-21.1,0-31.61,0
			C0.36,32.7,0.36,24.79,0.36,16.88z"/>
		<polygon class="st3" points="16.72,7.53 0.36,16.88 39.93,16.84 56.28,7.5 		"/>
	</g>
</g>
</svg>
